# xmcd CD database file
#
# Track frame offsets:
#	150
#	24660
#	57225
#	65878
#	94573
#	109500
#	127540
#	152455
#	168510
#	174513
#	217115
#
# Disc length: 2940 seconds
#
# Revision: 0
# Processed by: cddbd v1.5.1PL2 Copyright (c) Steve Scherf et al.
# Submitted via: CDex 1.51
#
DISCID=8b0b7a0b
DTITLE=加川良 - 親愛なるQに捧ぐ
DYEAR=1972
DGENRE=ろっく
TTITLE0=偶成
TTITLE1=こがらし・えれじい
TTITLE2=夕焼けトンボ
TTITLE3=靴ひもむすんで
TTITLE4=鎮静剤
TTITLE5=こもりうた
TTITLE6=下宿屋
TTITLE7=白い家
TTITLE8=コオロギ
TTITLE9=親愛なるQに捧ぐ
TTITLE10=Data Track
EXTD=YEAR: 1972
EXTT0=
EXTT1=
EXTT2=
EXTT3=
EXTT4=
EXTT5=
EXTT6=
EXTT7=
EXTT8=
EXTT9=
EXTT10=
PLAYORDER=
